<svg xmlns="http://www.w3.org/2000/svg" width="14.001" height="16.22" viewBox="0 0 14.001 16.22"><defs><style>.a{fill:#11cdef;stroke:#11cdef;stroke-width:0.22px;}</style></defs><g transform="translate(-35.39 0.11)"><g transform="translate(35.5 0)"><path class="a" d="M48.813,10.188h-.5V5.156a.469.469,0,0,0-.137-.331L43.488.137A.468.468,0,0,0,43.156,0H35.969A.469.469,0,0,0,35.5.469V15.531a.469.469,0,0,0,.469.469H47.844a.469.469,0,0,0,.469-.469V14.25h.5a.469.469,0,0,0,.469-.469V10.656A.469.469,0,0,0,48.813,10.188Zm-1.437,4.875H36.438V.937h6.525L47.375,5.35v4.837H41.906a.469.469,0,0,0-.469.469v3.125a.469.469,0,0,0,.469.469h5.469Zm.969-1.75H42.375V11.125h5.969Z" transform="translate(-35.5 0)"/></g></g></svg>