<svg xmlns="http://www.w3.org/2000/svg" width="18.215" height="16.93" viewBox="0 0 18.215 16.93"><defs><style>.a{fill:#11cdef;}</style></defs><g transform="translate(0 -18.065)"><g transform="translate(0 18.065)"><g transform="translate(0 0)"><path class="a" d="M16.8,22.186H14.866V18.672a.607.607,0,0,0-.607-.607H3.956a.607.607,0,0,0-.607.607v3.514H1.417A1.418,1.418,0,0,0,0,23.6v6.109a1.418,1.418,0,0,0,1.417,1.417H3.349v3.259a.607.607,0,0,0,.607.607h10.3a.607.607,0,0,0,.607-.607V31.128H16.8a1.418,1.418,0,0,0,1.417-1.417V23.6A1.418,1.418,0,0,0,16.8,22.186ZM4.563,19.279h9.089v2.907H4.563Zm9.089,14.5H4.563V28.813h9.089C13.652,28.963,13.652,33.666,13.652,33.78ZM17,29.712a.2.2,0,0,1-.2.2H14.866V28.206a.607.607,0,0,0-.607-.607H3.956a.607.607,0,0,0-.607.607v1.708H1.417a.2.2,0,0,1-.2-.2V23.6a.2.2,0,0,1,.2-.2H16.8a.2.2,0,0,1,.2.2v6.109Z" transform="translate(0 -18.065)"/></g></g><g transform="translate(12.107 24.537)"><g transform="translate(0 0)"><path class="a" d="M342.451,199.988h-1.546a.607.607,0,1,0,0,1.214h1.546a.607.607,0,0,0,0-1.214Z" transform="translate(-340.298 -199.988)"/></g></g><g transform="translate(5.869 31.647)"><g transform="translate(0 0)"><path class="a" d="M170.846,399.834h-5.262a.607.607,0,0,0,0,1.214h5.262a.607.607,0,0,0,0-1.214Z" transform="translate(-164.977 -399.834)"/></g></g><g transform="translate(5.869 29.732)"><g transform="translate(0 0)"><path class="a" d="M170.846,346.006h-5.262a.607.607,0,1,0,0,1.214h5.262a.607.607,0,0,0,0-1.214Z" transform="translate(-164.977 -346.006)"/></g></g></g></svg>