<svg xmlns="http://www.w3.org/2000/svg" width="19.874" height="16.926" viewBox="0 0 19.874 16.926"><defs><style>.a{fill:#11cdef;}</style></defs><g transform="translate(0 -38.627)"><g transform="translate(0 38.627)"><path class="a" d="M130.652,375.691l-.94.832a8.637,8.637,0,0,0,.973.936l.795-.972A7.248,7.248,0,0,1,130.652,375.691Z" transform="translate(-124.63 -362.447)"/><path class="a" d="M93.92,326.187l-1.152.495a8.352,8.352,0,0,0,.632,1.2l1.057-.672A7.191,7.191,0,0,1,93.92,326.187Z" transform="translate(-89.134 -314.882)"/><path class="a" d="M15.655,38.768a8.453,8.453,0,0,0-12.622,6.2L.886,42.825,0,43.712l3.577,3.577,3.577-3.577-.886-.886L4.33,44.762A7.2,7.2,0,1,1,7.8,52.326l-.63,1.084a8.462,8.462,0,0,0,8.489-14.642Z" transform="translate(0 -37.627)"/><path class="a" d="M267.312,109.627v6.9l2.758,2.069.752-1-2.257-1.692v-6.268Z" transform="translate(-256.839 -106.806)"/></g></g></svg>